<?xml version="1.0" encoding="utf-8"?>
<!-- Generator: Adobe Illustrator 21.0.0, SVG Export Plug-In . SVG Version: 6.00 Build 0)  -->
<svg version="1.1" id="Capa_1" xmlns="http://www.w3.org/2000/svg" xmlns:xlink="http://www.w3.org/1999/xlink" x="0px" y="0px"
	 viewBox="0 0 512 512" style="enable-background:new 0 0 512 512;" xml:space="preserve">
<style type="text/css">
	.st0{fill:#F85A16;}
</style>
<g>
	<g>
		<g>
			<path class="st0" d="M429.2,461.3c8.9-9.3,15.7-20.6,20-33c5.8-16.7,6.8-34.5,2.7-51.4c-3.8-16-12.1-30.6-24.1-42.4V68l34.8-21.8
				l-15.5-24.7l-95.8,59.9l15.5,24.7l31.9-19.9v222.9c-79.2-67-133.6-105.9-161.7-115.7c-20.6-7.2-42.1-9.8-63.2-8L134,127.8h40.7
				V98.6h-114v29.2h37.9l44,63.8c-7.3,2.3-14.6,5.1-21.6,8.5c-36.5,17.6-64,48.4-77.4,86.7c-13.4,38.3-11,79.5,6.6,116
				c11.5,23.8,28.6,43.8,49.7,58.5H7v29.2h498v-29.2H429.2z M421.7,418.7c-6.7,19.1-24.8,39.9-55.6,41.2
				c-15.4,0.6-29.8,1.1-43.2,1.5H218.9c-43.8-1.7-63.5-5.6-72.3-8.7c-30.9-10.8-55.8-33-70.1-62.5c-14.2-29.5-16.1-62.8-5.4-93.7
				s33-55.8,62.5-70.1c16.9-8.2,35-12.3,53.2-12.3c13.6,0,27.3,2.3,40.5,6.9c15.5,5.4,58.9,29.6,176.4,130.9
				C427.1,372,428.3,399.6,421.7,418.7z"/>
		</g>
	</g>
	<g>
		<g>
			<path class="st0" d="M248.4,396.5L222,355.9c13.8-11.9,22.6-29.4,22.6-49c0-35.7-29-64.7-64.7-64.7s-64.7,29-64.7,64.7
				c0,35.7,29,64.7,64.7,64.7c5.6,0,11-0.7,16.1-2l17.6,27h-22v29.2h83.6v-29.2H248.4z M179.9,342.4c-19.6,0-35.5-15.9-35.5-35.5
				c0-19.6,15.9-35.5,35.5-35.5s35.5,15.9,35.5,35.5C215.3,326.5,199.4,342.4,179.9,342.4z"/>
		</g>
	</g>
</g>
</svg>
