<?xml version="1.0" encoding="utf-8"?>
<!-- Generator: Adobe Illustrator 21.0.0, SVG Export Plug-In . SVG Version: 6.00 Build 0)  -->
<svg version="1.1" id="Capa_1" xmlns="http://www.w3.org/2000/svg" xmlns:xlink="http://www.w3.org/1999/xlink" x="0px" y="0px"
	 viewBox="0 0 512 512" style="enable-background:new 0 0 512 512;" xml:space="preserve">
<style type="text/css">
	.st0{fill:#F85A16;}
</style>
<g>
	<g>
		<path class="st0" d="M507.8,386.9l-1.9-10.4c-1.2-6.6-7-11.4-13.8-11.4c-0.8,0-1.7,0.1-2.5,0.2l-39.1,7.2l17.7-11.8
			c4.6-3.1,7-8.7,6-14.2c-0.3-1.5-0.8-3-1.6-4.3l-5.4-9.5c-1.8-3.3-5-5.7-8.6-6.6c-1.8-0.5-3.6-0.6-5.4-0.3c2-10.9,3-22,3-33.3
			c0-5-3-9.3-7.3-11.3c5.6-13.4,6-28.8,0.4-42.8c-0.5-1.1-1.1-2.2-2-3c-0.9-0.9-1.9-1.5-3-2c-6.7-2.7-13.7-4-20.9-4
			c-0.9,0-1.8,0-2.7,0.1c-1-20.6-18.1-37.1-38.9-37.1c-2.7,0-5.4,0.3-8,0.8c1.8-10.7,0.7-22-3.4-32.5c-0.4-1.2-1.1-2.2-2-3.1
			c-0.9-0.9-1.9-1.6-3.1-2c-7.2-2.9-14.8-4.3-22.5-4.3c-11.6,0-22.8,3.3-32.4,9.3c-3.5-10.2-9.3-19.7-17.4-27.8
			c-2.4-2.4-5.5-3.7-8.9-3.7c-3.4,0-6.5,1.3-8.9,3.7l-35.7,35.8c-6.6-5.9-15.3-9.4-24.8-9.4c-2.1,0-4.3,0.2-6.4,0.6
			c-7.7,1.3-14.8,5.1-20.2,10.6c-7-3.4-14.9-4.5-22.6-3.2c-1.7,0.3-3.3,0.7-4.9,1.2v-27.6c0-19-15.3-34.5-34.2-34.8V90.1
			c5.8-1,10.2-6,10.2-12.1V42.5c0-6.8-5.5-12.3-12.3-12.3h-60c-6.8,0-12.3,5.5-12.3,12.3V78c0,6.1,4.4,11.1,10.2,12.1v15.7
			c-18.9,0.3-34.2,15.8-34.2,34.8v215.5C13.2,369.4,4,388,4,408.5c0,40.4,35.5,73.3,79.1,73.3l295.5-0.1c10.1,0,19.6-4.4,26-12.2
			c6.3-7.5,9-17.3,7.4-26.9l59,10.6c0.8,0.1,1.7,0.2,2.5,0.2c2.9,0,5.8-0.9,8.2-2.6c3.1-2.2,5.1-5.6,5.7-9.3l1.6-10.7
			c0.2-1.5,0.2-3.1-0.1-4.6c-1-5.5-5.2-9.8-10.6-11.1l-20.8-4.8l39.1-7.2c3.7-0.7,6.9-2.7,9-5.8
			C507.7,394.3,508.4,390.5,507.8,386.9z M423.4,243.9c4.4,0,8.8,0.7,13,2.1c3.8,11.4,2.3,23.8-3.5,33.9H413l6.3-6.4
			c2.9-2.9,2.9-7.6,0-10.4c-2.9-2.9-7.6-2.9-10.4,0l-3.4,3.4c-1.6-5.2-4.3-9.8-7.9-13.6C404.9,247.1,413.9,243.9,423.4,243.9z
			 M381.7,206.9c13.3,0,24.2,10.9,24.2,24.3c0,0.2,0,0.5,0,0.7c-7.8,2.5-15,6.8-21.1,12.5c-1-0.4-2-0.7-3-1
			c-2.2-11.7-10-21-20.4-25.4C365.7,211.4,373.2,206.9,381.7,206.9z M342.7,165.8c5,0,9.9,0.8,14.7,2.4c3.8,11.3,3,23.5-1.8,34.1
			c-4,3.6-7.2,8.1-9.5,13.1c-1.3,0.1-2.6,0.2-3.9,0.4c-5.8,1-11.2,3.5-15.7,7.2c-1.5-2.8-3.4-5.4-5.6-7.8l16.9-17
			c2.9-2.9,2.9-7.6,0-10.4c-2.9-2.9-7.6-2.9-10.4,0l-18.5,18.5c-3.5-1.7-7.3-2.8-11.3-3.4c1.7-8.8,6-17.1,12.6-23.7
			C318.9,170.6,330.4,165.8,342.7,165.8z M286.1,280h-6.4c-1.1-2.7-3.7-4.7-6.9-4.7s-5.8,1.9-6.9,4.7h-7.5c1.7-2.8,1.4-6.6-1.1-9.1
			c-2.9-2.9-7.6-2.9-10.4,0l-7,7c-0.6,0.6-1.1,1.3-1.5,2.1h-15c-5.6-8.6-9.1-18.8-9.5-29.8h117.1c-0.4,11-3.8,21.2-9.5,29.8h-15.6
			c-0.4-0.8-0.8-1.5-1.5-2.1l-7-7c-2.9-2.9-7.6-2.9-10.4,0C284.7,273.3,284.4,277.1,286.1,280z M269,235.4
			c2.8-10.3,12.2-17.9,23.3-17.9c11.1,0,20.6,7.6,23.3,17.9L269,235.4L269,235.4z M284.1,144.6c7,7.6,11.7,16.6,13.9,26.1
			c-3.8,4.1-6.9,8.6-9.4,13.4c-1.1-0.7-2.4-1.1-3.8-1.1h-9.8c-4.1,0-7.4,3.3-7.4,7.4c0,4.1,3.3,7.4,7.4,7.4h8.6
			c-0.5,2-0.9,4.1-1.1,6.2c-2.9,0.8-5.7,1.9-8.4,3.3c-4.9-8.5-13.1-14.8-22.7-17.4c0,0,0,0,0-0.1c-0.6-3.3-1.6-6.5-3-9.5
			L284.1,144.6z M150.6,211.2c-0.4-1.2-0.8-2.5-1-3.7c-2.1-12.2,6.1-23.9,18.3-26c1.3-0.2,2.6-0.3,3.9-0.3c4.9,0,9.5,1.6,13.4,4.5
			c1.6,1.2,3.7,1.7,5.7,1.4c2-0.3,3.8-1.5,4.9-3.2c3.5-5.2,8.8-8.7,14.9-9.8c1.3-0.2,2.6-0.3,3.9-0.3c10.9,0,20.2,7.8,22.1,18.6
			c0.2,1.2,0.3,2.5,0.3,3.8c0,3.8,2.9,7,6.7,7.3c8.3,0.7,15.3,5.9,18.5,13.2c-4.4,5.2-7.4,11.6-8.5,18.6h-42.1
			c-5.2,0-9.7,3.2-11.6,7.8c-9.3-6.3-20.2-9.7-31.6-9.7c-7.2,0-14.2,1.3-20.9,4c-1.1,0.5-2.1,1.1-3,2c-0.9,0.9-1.5,1.9-2,3
			c-1.7,4.3-2.8,8.7-3.4,13.1c-2.6-3-4.5-6.8-5.2-11c-1.7-10,3.5-20,12.7-24.3C150.2,218.8,151.9,214.8,150.6,211.2z M172.6,277.9
			l2,2h-17.7c-4-9.2-4.6-19.7-1.4-29.6c4.2-1.4,8.6-2.1,13-2.1c11.1,0,21.6,4.3,29.5,12.2c1,1.1,2,2.2,2.9,3.3
			c1.3,5.7,3.2,11.1,5.7,16.2h-11.1l-12.4-12.4c-2.9-2.9-7.6-2.9-10.4,0C169.7,270.4,169.7,275.1,172.6,277.9z M141.2,280h-26.3
			c1.2-7.2,5.5-13.2,11.4-16.8c3.5,4.7,8.1,8.6,13.5,11.2C140.1,276.2,140.6,278.1,141.2,280z M66.7,45h55.1v30.6H66.7V45z
			 M111.6,90.3v15.4H76.9V90.3H111.6z M42.7,170.5h47.9c4.1,0,7.4-3.3,7.4-7.4s-3.3-7.4-7.4-7.4H42.7v-15.2c0-11.1,9-20.1,20-20.1
			h63c11,0,20,9,20,20.1v15.2H132c-4.1,0-7.4,3.3-7.4,7.4s3.3,7.4,7.4,7.4h13.8v6.6c-8.5,8.3-12.9,20.5-10.7,33c0,0,0,0.1,0,0.1
			c-11.8,8.1-18.2,22.6-15.6,37.1c0.1,0.8,0.3,1.7,0.5,2.5c-3.7,2-7,4.7-9.8,7.7H42.7V170.5z M42.7,272.2L42.7,272.2h58.9
			c-0.8,2.5-1.3,5.1-1.6,7.8h-1.2c-6.8,0-12.3,5.5-12.3,12.3c0,11.7,1.1,23.2,3.2,34.5c-2.1-0.2-4.3-0.3-6.5-0.3
			c-8.9,0-17.4,1.4-24,4c-10,3.9-12.7,9.5-13.3,13.4c-1.1,0.5-2.1,1.1-3.1,1.6C42.7,345.6,42.7,272.2,42.7,272.2z M136.2,362.9
			c2.7,2.1,4.3,3.9,5.2,5.2c-0.1,0-0.2,0-0.3,0c-4.2,0-11.7-1.7-20.2-6.4c-3.2-1.8-6.1-3.8-8.5-5.8c-2.8-2.3-6.8-2.3-9.5,0
			c-2.4,2-5.3,4-8.5,5.7c-8.5,4.7-16,6.4-20.2,6.4c-0.1,0-0.2,0-0.3,0c0.9-1.3,2.6-3.1,5.2-5.2c2.3-1.9,3.3-4.9,2.5-7.8
			c-0.8-2.9-3.3-5-6.2-5.3c-7.2-0.8-11.8-2.7-13.9-4c2.7-1.7,9.4-4.5,21.6-4.5c10.1,0,17.4,2.1,21,4.1c2.2,1.3,5,1.3,7.2,0
			c3.5-2,10.9-4.1,21-4.1c12.2,0,18.9,2.8,21.6,4.5c-2.1,1.3-6.7,3.2-13.9,4c-3,0.3-5.4,2.4-6.2,5.3
			C132.9,358,133.8,361,136.2,362.9z M121.4,452.8l0.3,1.4c0.9,4.7,2.7,9.1,5.3,12.9H83.1c-35.4,0-64.3-26.2-64.3-58.5
			c0-22,13.5-41.3,33.3-51.3c2.3,1.7,5.1,3.2,8.5,4.4c-1.3,2.3-2.3,4.7-2.5,7.3c-0.3,3.4,0.8,6.6,2.9,9.1c2.9,3.3,7.3,4.9,13.2,4.9
			c7.8,0,18-3.1,27.4-8.3c2.2-1.2,4.2-2.4,6.1-3.8c1.9,1.3,3.9,2.6,6.1,3.8c9.3,5.2,19.6,8.3,27.4,8.3h0c5.9,0,10.3-1.7,13.2-4.9
			c2.2-2.5,3.2-5.7,2.9-9.1c-0.2-2.6-1.2-5-2.5-7.3c3.4-1.2,6.2-2.7,8.5-4.4c15.7,7.9,27.5,21.6,31.6,38l-52.2,19.8
			C127.4,420.9,118.4,436.7,121.4,452.8z M393.2,460.1c-3.6,4.4-9,6.9-14.7,6.9l-7.7,0l-4.8-26.1c-0.7-4-4.6-6.7-8.6-5.9
			c-4,0.7-6.7,4.6-5.9,8.6l4.3,23.5l-25.4,0l-3.3-17.7c-0.7-4-4.6-6.7-8.6-5.9c-4,0.7-6.7,4.6-5.9,8.6l2.8,15l-59.1,0l-4.4-24
			c-0.7-4-4.6-6.7-8.6-5.9c-4,0.7-6.7,4.6-5.9,8.6l4,21.3l-86.3,0c0,0,0,0,0,0c-9.2,0-17.1-6.5-18.8-15.6l-0.3-1.4
			c-1.7-9,3.4-17.9,12-21.2l29-11l2.2,11.7c0.7,3.6,3.8,6,7.2,6c0.4,0,0.9,0,1.4-0.1c4-0.7,6.7-4.6,5.9-8.6l-2.7-14.3l43.1-16.4
			c3.8-1.4,5.7-5.7,4.3-9.5c-1.4-3.8-5.7-5.7-9.5-4.3l-20,7.6c-5.6-19.9-20.1-36.5-39.2-46.1c-0.6-3.9-3.4-9.5-13.3-13.4
			c-6.5-2.6-15-4-24-4c-6.1,0-12,0.7-17.2,1.9V324c0-4.1-3.3-7.4-7.4-7.4c-1.7,0-3.3,0.6-4.6,1.6c-1.2-7.7-1.8-15.5-1.9-23.5h240.5
			c4.1,0,7.4-3.3,7.4-7.4s-3.3-7.4-7.4-7.4h-3c4.7-9.7,7.4-20.5,7.4-32c0-6.5-5-11.9-11.3-12.5c2.8-2.6,6.2-4.4,10.1-5
			c1.1-0.2,2.3-0.3,3.4-0.3c9.5,0,17.6,6.8,19.3,16.2c0.2,1.1,0.3,2.2,0.3,3.3c0,3.8,2.9,7,6.7,7.3c8.8,0.8,16,7.4,17.6,16.1
			c0.4,2.3,0.4,4.6-0.1,6.8H384c-4.1,0-7.4,3.3-7.4,7.4s3.3,7.4,7.4,7.4h57.4c-0.2,13.5-1.9,26.8-5.2,39.6l-40,23.6
			c-2.4-8.5-8.1-15.7-16-20.1c-8.8-4.9-19.2-5.7-28.7-2.1L269.1,367c-3.8,1.4-5.7,5.7-4.3,9.5c1.4,3.8,5.7,5.7,9.5,4.3l10.9-4.1
			l3.4,18.2c0.7,3.6,3.8,6,7.3,6c0.4,0,0.9,0,1.4-0.1c4-0.7,6.7-4.6,5.9-8.6l-3.9-20.8l57.5-21.9c5.3-2,11.2-1.6,16.2,1.2
			c5,2.8,8.4,7.6,9.4,13.1l14.9,80.6C398.4,450,396.9,455.7,393.2,460.1z M419.6,402.3c-3.4,0.6-6,3.6-6,7.1
			c-0.1,3.5,2.3,6.6,5.7,7.4l55,12.6l-1.4,9.2l-63.7-11.5l-10-53.8l55.5-32.8l4.6,8.2L412.5,380c-2.9,1.9-4.1,5.7-2.7,8.9
			c1.3,3.2,4.7,5.1,8.2,4.5l73.5-13.5l1.6,8.8L419.6,402.3z"/>
	</g>
</g>
</svg>
