<?xml version="1.0" encoding="utf-8"?>
<!-- Generator: Adobe Illustrator 21.0.0, SVG Export Plug-In . SVG Version: 6.00 Build 0)  -->
<svg version="1.1" id="Capa_1" xmlns="http://www.w3.org/2000/svg" xmlns:xlink="http://www.w3.org/1999/xlink" x="0px" y="0px"
	 viewBox="0 0 512 512" style="enable-background:new 0 0 512 512;" xml:space="preserve">
<style type="text/css">
	.st0{fill:#F85A16;}
</style>
<g>
	<path id="XMLID_487_" class="st0" d="M47.9,268c0,6.2-5,11.2-11.2,11.2H16.2C10,279.2,5,274.2,5,268c0-6.2,5-11.2,11.2-11.2h20.4
		C42.8,256.8,47.9,261.8,47.9,268z M154.5,366.3c-0.3,3.1,0.8,6.2,2.9,8.6s5.1,3.6,8.3,3.6h21.6c6.2,0,11.2-5,11.2-11.2
		c0-6.2-5-11.2-11.2-11.2h-8c8.7-28,38-51.8,77.2-61.5c39.2,9.8,68.5,33.5,77.2,61.5h-8c-6.2,0-11.2,5-11.2,11.2
		c0,6.2,5,11.2,11.2,11.2h21.6c3.1,0,6.1-1.3,8.3-3.6c2.1-2.3,3.2-5.4,2.9-8.6c-2-22.1-12.8-42.8-31.5-59.9
		c-17.7-16.2-41.2-28.1-68-34.3c-1.7-0.4-3.4-0.4-5,0c-26.8,6.2-50.3,18-68,34.3C167.3,323.4,156.5,344.2,154.5,366.3z M411.1,124.1
		c2.9,0,5.7-1.1,7.9-3.3l14.5-14.5c4.4-4.4,4.4-11.5,0-15.8c-4.4-4.4-11.5-4.4-15.8,0L403.2,105c-4.4,4.4-4.4,11.5,0,15.8
		C405.4,123,408.2,124.1,411.1,124.1z M256,59.9c6.2,0,11.2-5,11.2-11.2V28.2c0-6.2-5-11.2-11.2-11.2c-6.2,0-11.2,5-11.2,11.2v20.4
		C244.8,54.9,249.8,59.9,256,59.9z M93,120.8c2.2,2.2,5.1,3.3,7.9,3.3c2.9,0,5.7-1.1,7.9-3.3c4.4-4.4,4.4-11.5,0-15.8L94.4,90.5
		c-4.4-4.4-11.5-4.4-15.8,0c-4.4,4.4-4.4,11.5,0,15.8L93,120.8z M230.5,451c-6.2,0-11.2,5-11.2,11.2v10.4h-80.6
		c-14.6,0-26.5-11.9-26.5-26.5s11.9-26.5,26.5-26.5h80.1c6.2,0,11.2-5,11.2-11.2c0-6.2-5-11.2-11.2-11.2h-80.1
		c-27,0-48.9,21.9-48.9,48.9s21.9,48.9,48.9,48.9h91.9c6.2,0,11.2-5,11.2-11.2v-21.6C241.8,456,236.7,451,230.5,451z M495.8,256.8
		h-20.4c-6.2,0-11.2,5-11.2,11.2c0,6.2,5,11.2,11.2,11.2h20.4c6.2,0,11.2-5,11.2-11.2C507,261.8,502,256.8,495.8,256.8z M256,87.9
		C155,87.9,72.9,170,72.9,271c0,35.2,10,69.3,28.9,98.8c2.1,3.3,5.8,5.2,9.4,5.2c2.1,0,4.2-0.6,6-1.8c5.2-3.3,6.7-10.3,3.4-15.5
		c-16.6-25.9-25.4-55.8-25.4-86.7c0-88.6,72.1-160.7,160.7-160.7c88.6,0,160.7,72.1,160.7,160.7c0,30.9-8.8,60.9-25.4,86.7
		c-3.3,5.2-1.8,12.1,3.4,15.5c5.2,3.3,12.1,1.8,15.5-3.4c18.9-29.5,28.9-63.6,28.9-98.8C439.1,170,357,87.9,256,87.9z M253.1,249.7
		c-22.7-7.2-38-28.1-38-52s15.3-44.8,38-52c2.2-0.7,4.6-0.7,6.8,0c22.7,7.2,38,28.1,38,52c0,23.9-15.3,44.8-38,52
		c-1.1,0.4-2.3,0.5-3.4,0.5S254.2,250,253.1,249.7z M256.5,227c11.5-5.1,19-16.5,19-29.4c0-12.8-7.5-24.2-19-29.4
		c-11.5,5.1-19,16.5-19,29.4C237.5,210.5,245,221.9,256.5,227z M374.2,397.2h-80.1c-6.2,0-11.2,5-11.2,11.2c0,6.2,5,11.2,11.2,11.2
		h80.1c14.6,0,26.5,11.9,26.5,26.5s-11.9,26.5-26.5,26.5h-80.6v-10.4c0-6.2-5-11.2-11.2-11.2c-6.2,0-11.2,5-11.2,11.2v21.6
		c0,6.2,5,11.2,11.2,11.2h91.9c27,0,48.9-21.9,48.9-48.9S401.2,397.2,374.2,397.2z M256.5,317.9c-6.2,0-11.2,5-11.2,11.2v79.3
		c0,6.2,5,11.2,11.2,11.2c6.2,0,11.2-5,11.2-11.2v-79.3C267.7,322.9,262.6,317.9,256.5,317.9z"/>
</g>
</svg>
