<?xml version="1.0" encoding="utf-8"?>
<!-- Generator: Adobe Illustrator 21.0.0, SVG Export Plug-In . SVG Version: 6.00 Build 0)  -->
<svg version="1.1" id="Capa_1" xmlns="http://www.w3.org/2000/svg" xmlns:xlink="http://www.w3.org/1999/xlink" x="0px" y="0px"
	 viewBox="0 0 512 512" style="enable-background:new 0 0 512 512;" xml:space="preserve">
<style type="text/css">
	.st0{fill:#F85A16;}
</style>
<path id="XMLID_1322_" class="st0" d="M305.3,329.2L333,439.3h17.9c6.8,0,12.3,5.5,12.3,12.3s-5.5,12.3-12.3,12.3h-27.5
	c-5.6,0-10.6-3.8-11.9-9.3l-30-119.4c-1.7-6.6,2.3-13.3,8.9-14.9C296.9,318.6,303.6,322.6,305.3,329.2z M306.8,198.7L169.4,439.3
	h-20.3c-6.8,0-12.3,5.5-12.3,12.3s5.5,12.3,12.3,12.3h27.5c4.4,0,8.5-2.4,10.7-6.2l143.6-251.5c1.7-2.9,2.1-6.4,1.1-9.7
	c-3.2-10.4-7.4-21.8-11.8-33.8c-9-24.3-19-51.5-20.8-72.8c12.7-13.3,30.7-26,56.1-39.7c6-3.2,8.2-10.7,5-16.7
	c-3.2-6-10.7-8.2-16.7-5c-30.4,16.4-51.4,31.8-66.3,48.7c-2,2.3-3.1,5.3-3.1,8.4c0.5,26,12.2,57.7,22.6,85.6
	C300.6,181,304.1,190.3,306.8,198.7z M134.3,382.2c2.8,0,5.7-1,8-3c5.2-4.4,5.7-12.2,1.3-17.4c-32-37.3-49.7-84.9-49.7-134.2
	c0-92.4,62.1-174,151-198.5c5.9-1.6,9.7-7.4,8.9-13.5c-0.8-6.1-6-10.7-12.2-10.7h-67.2c-6.8,0-12.3,5.5-12.3,12.3
	s5.5,12.3,12.3,12.3h7.4C113.5,70.5,69.4,145.3,69.4,227.7c0,55.1,19.8,108.4,55.6,150.2C127.4,380.7,130.9,382.2,134.3,382.2z
	 M420.5,187c-11,9-24.5,13.6-38,13.6c-11.4,0-22.8-3.3-32.9-9.8c-2.1-1.4-3.8-3.4-4.7-5.8c-9.6-24.4-2.4-52,18-68.6
	c20.4-16.6,48.8-18.1,70.8-3.7c2.1,1.4,3.8,3.4,4.7,5.8C448.1,142.9,440.8,170.4,420.5,187z M416.8,131.2
	c-12.4-6.3-27.4-4.7-38.4,4.2c-11,9-15.5,23.3-11.9,36.7c12.4,6.3,27.4,4.7,38.4-4.2C415.9,159,420.4,144.7,416.8,131.2z
	 M354.7,233.6c-4.1-5.4-11.9-6.4-17.3-2.3c-5.4,4.1-6.4,11.9-2.3,17.3c16.5,21.6,37.2,62.9,44.4,87.7c-8,8.6-25.6,21.2-40.1,28.3
	c-6.1,3-8.6,10.4-5.6,16.5c2.1,4.4,6.5,6.9,11.1,6.9c1.8,0,3.7-0.4,5.4-1.3c15.7-7.7,43.3-26,53-40.8c1.8-2.8,2.4-6.2,1.7-9.4
	C398.9,309,374.9,260,354.7,233.6z M379.9,482.4H118.3c-6.8,0-12.3,5.5-12.3,12.3c0,6.8,5.5,12.3,12.3,12.3h261.6
	c6.8,0,12.3-5.5,12.3-12.3C392.2,487.9,386.7,482.4,379.9,482.4z"/>
</svg>
