<?xml version="1.0" encoding="utf-8"?>
<!-- Generator: Adobe Illustrator 21.0.0, SVG Export Plug-In . SVG Version: 6.00 Build 0)  -->
<svg version="1.1" id="Capa_1" xmlns="http://www.w3.org/2000/svg" xmlns:xlink="http://www.w3.org/1999/xlink" x="0px" y="0px"
	 viewBox="0 0 512 512" style="enable-background:new 0 0 512 512;" xml:space="preserve">
<style type="text/css">
	.st0{fill:#F85A16;}
</style>
<g>
	<g>
		<path class="st0" d="M483.7,147.7l-29.8-29.8L483.7,88c5.5-5.5,5.5-14.4,0-19.9l-39.8-39.8c-5.5-5.5-14.4-5.5-19.9,0l-29.8,29.8
			l-29.8-29.8c-16.4-16.5-43.2-16.4-59.7,0L293,40c-15.6-7.5-35-4.8-48,8.3l-19.9,19.9c-5.5,5.5-5.5,14.4,0,19.9l69.6,69.6
			L157.6,294.7L88,225.1c-5.5-5.5-14.4-5.5-19.9,0L48.2,245c-13,13-15.7,32.3-8.2,48l-11.7,11.7c-16.5,16.5-16.5,43.2,0,59.7
			l29.8,29.8L28.3,424c-5.5,5.5-5.5,14.4,0,19.9l39.8,39.8c5.5,5.5,14.4,5.5,19.9,0l29.8-29.8l29.8,29.8c16.4,16.4,43.2,16.4,59.7,0
			L219,472c15.6,7.5,35,4.8,48-8.3l19.9-19.9c5.5-5.5,5.5-14.4,0-19.9l-69.6-69.6l137.1-137.1l69.6,69.6c5.5,5.5,14.4,5.5,19.9,0
			l19.9-19.9c13-13,15.7-32.3,8.2-48l11.7-11.7C500.1,190.9,500.1,164.1,483.7,147.7z M433.9,58.2l19.9,19.9L433.9,98l-19.9-19.9
			L433.9,58.2z M78.1,453.8l-19.9-19.9L78.1,414l19.9,19.9L78.1,453.8z M187.4,463.8c-5.5,5.5-14.4,5.5-19.9,0L48.2,344.4
			c-5.5-5.5-5.5-14.4,0-19.9l9.9-9.9l139.2,139.2L187.4,463.8z M257.1,433.9l-9.9,9.9c-5.5,5.5-14.4,5.5-19.9,0L68.1,284.8
			c-5.5-5.5-5.5-14.4,0-19.9l9.9-9.9C84.3,261.1,253.9,430.8,257.1,433.9z M197.4,334.5l-19.9-19.9l137.1-137.1l19.9,19.9
			L197.4,334.5z M443.9,247.1l-9.9,9.9L324.6,147.7l0,0l0,0l-69.6-69.6l9.9-9.9c5.5-5.5,14.4-5.5,19.9,0l159.1,159.1
			C449.4,232.7,449.4,241.6,443.9,247.1z M463.8,187.4l-9.9,9.9L314.6,58.2l9.9-9.9c5.5-5.5,14.4-5.5,19.9,0l119.3,119.3
			C469.3,173,469.3,182,463.8,187.4z"/>
	</g>
</g>
</svg>
