<?xml version="1.0" encoding="utf-8"?>
<!-- Generator: Adobe Illustrator 21.0.0, SVG Export Plug-In . SVG Version: 6.00 Build 0)  -->
<svg version="1.1" id="Capa_1" xmlns="http://www.w3.org/2000/svg" xmlns:xlink="http://www.w3.org/1999/xlink" x="0px" y="0px"
	 viewBox="0 0 512 512" style="enable-background:new 0 0 512 512;" xml:space="preserve">
<style type="text/css">
	.st0{fill:#F85A16;}
</style>
<g transform="translate(0 1)">
	<g>
		<g>
			<path class="st0" d="M391.6,197c5.6-49.2,8-98.4,8-145.2c0.8-16.8-11.8-32.7-29.4-36.1c-77.2-16.8-154.5-16.8-227.5,0
				C125,19.1,112.4,35,113.3,51.8c0,46.5,3.2,95.4,8,144.4c-30.9,33.1-50,77.4-50,126c0,101.6,83.1,184.7,184.7,184.7
				s184.7-83.1,184.7-184.7C440.7,274,422,230,391.6,197z M256,137.5c-25.3,0-49.4,5.2-71.4,14.5c-2-26.6-3.4-51.4-4.1-74.9
				c26-4.2,52.1-6.7,75.6-6.7s47.9,2.5,75.6,7.6c-0.7,23.9-2.1,48.4-4,74.1C305.5,142.6,281.3,137.5,256,137.5z M145.2,32.5
				c71.4-16.8,146.1-16.8,220.8,0c9.2,1.7,16.8,9.2,16,18.5c0,42.8-2.5,86.5-5.9,131c-9-7.5-18.1-14.4-28.3-20
				c-1.2-0.7-2.4-1.3-3.6-2c2.5-31,3.4-60.4,4.2-89.7c0-4.2-3.4-7.6-6.7-8.4c-31.9-5.9-58.8-8.4-85.6-8.4s-56.3,2.5-85.6,8.4
				c-4.2,0.8-6.7,4.2-6.7,8.4c0,27.7,1.7,57.1,5,89c-11.8,6.7-21.8,13.4-31.9,21.8c-4.2-43.7-6.7-87.3-6.7-131
				C129.2,42.6,136.8,34.2,145.2,32.5z M256,490.1c-92.4,0-167.9-75.6-167.9-167.9S163.6,154.2,256,154.2c25.7,0,50.1,5.9,72,16.3
				c0.7,0.9,1.6,1.6,2.7,2.2c16.8,8.4,32.7,19.3,45.3,32.7c0.6,0.6,1.1,1,1.7,1.4c28.6,30.1,46.1,70.8,46.1,115.3
				C423.9,414.5,348.4,490.1,256,490.1z"/>
			<path class="st0" d="M139.3,338.1c0-5-4.2-8.4-9.2-7.6s-7.6,5-6.7,10.1c3.4,26.9,15.1,52.9,34.4,73c1.7,1.7,3.4,2.5,5.9,2.5
				c1.7,0,4.2-0.8,5-2.5c4.2-3.4,4.2-8.4,0.8-11.8C152.7,384.3,142.6,362.5,139.3,338.1z"/>
			<path class="st0" d="M256,438.9c-14.3,0-28.5-2.5-42-7.6c-4.2-1.7-9.2,0.8-10.9,5s0.8,9.2,5,10.9c15.1,5.9,31.1,9.2,47.9,9.2
				c4.2,0,8.4-4.2,8.4-9.2S261,438.9,256,438.9z"/>
			<path class="st0" d="M185.5,418.7c-5,0-8.4,3.4-8.4,8.4c0,5,3.4,8.4,8.4,8.4s8.4-4.2,8.4-8.4
				C193.9,422.1,190.5,418.7,185.5,418.7z"/>
		</g>
	</g>
</g>
</svg>
